<mxfile host="65bd71144e">
    <diagram id="IhgkvcrVw-2vIlGwe0Ot" name="Page-1">
        <mxGraphModel dx="683" dy="419" grid="0" gridSize="10" guides="1" tooltips="1" connect="1" arrows="1" fold="1" page="1" pageScale="1" pageWidth="827" pageHeight="1169" math="0" shadow="0">
            <root>
                <mxCell id="0"/>
                <mxCell id="1" parent="0"/>
                <mxCell id="19" style="edgeStyle=none;html=1;entryX=0.406;entryY=1.007;entryDx=0;entryDy=0;entryPerimeter=0;fontSize=7;exitX=1;exitY=0;exitDx=0;exitDy=0;" parent="1" source="2" target="14" edge="1">
                    <mxGeometry relative="1" as="geometry">
                        <Array as="points">
                            <mxPoint x="548" y="352"/>
                        </Array>
                    </mxGeometry>
                </mxCell>
                <mxCell id="20" value="Disponibilidad&amp;nbsp; de gestion" style="edgeLabel;html=1;align=center;verticalAlign=middle;resizable=0;points=[];fontSize=7;" parent="19" vertex="1" connectable="0">
                    <mxGeometry x="0.251" y="-1" relative="1" as="geometry">
                        <mxPoint x="-82" y="9" as="offset"/>
                    </mxGeometry>
                </mxCell>
                <mxCell id="75" style="edgeStyle=none;html=1;entryX=0.987;entryY=0.658;entryDx=0;entryDy=0;entryPerimeter=0;" edge="1" parent="1" source="2" target="31">
                    <mxGeometry relative="1" as="geometry">
                        <Array as="points">
                            <mxPoint x="364" y="549"/>
                        </Array>
                    </mxGeometry>
                </mxCell>
                <mxCell id="77" style="edgeStyle=none;html=1;entryX=0.25;entryY=1;entryDx=0;entryDy=0;exitX=0.678;exitY=0.045;exitDx=0;exitDy=0;exitPerimeter=0;" edge="1" parent="1" source="2" target="14">
                    <mxGeometry relative="1" as="geometry">
                        <Array as="points">
                            <mxPoint x="538" y="344"/>
                        </Array>
                    </mxGeometry>
                </mxCell>
                <mxCell id="78" style="edgeStyle=none;html=1;entryX=0.5;entryY=1;entryDx=0;entryDy=0;exitX=0;exitY=0.3;exitDx=0;exitDy=0;exitPerimeter=0;" edge="1" parent="1" source="2" target="4">
                    <mxGeometry relative="1" as="geometry">
                        <Array as="points">
                            <mxPoint x="150" y="369"/>
                        </Array>
                    </mxGeometry>
                </mxCell>
                <mxCell id="2" value="&lt;font style=&quot;font-size: 11px&quot;&gt;Sistema gestor de tours&lt;/font&gt;" style="ellipse;whiteSpace=wrap;html=1;aspect=fixed;" parent="1" vertex="1">
                    <mxGeometry x="314" y="339" width="100" height="100" as="geometry"/>
                </mxCell>
                <mxCell id="3" value="" style="endArrow=classic;html=1;exitX=0.176;exitY=0.117;exitDx=0;exitDy=0;exitPerimeter=0;entryX=0.75;entryY=1;entryDx=0;entryDy=0;" parent="1" source="2" target="4" edge="1">
                    <mxGeometry width="50" height="50" relative="1" as="geometry">
                        <mxPoint x="360" y="390" as="sourcePoint"/>
                        <mxPoint x="185" y="266" as="targetPoint"/>
                        <Array as="points">
                            <mxPoint x="330" y="350"/>
                            <mxPoint x="280" y="350"/>
                            <mxPoint x="180" y="350"/>
                        </Array>
                    </mxGeometry>
                </mxCell>
                <mxCell id="6" value="Solicitud de servicio&amp;nbsp;" style="edgeLabel;html=1;align=center;verticalAlign=middle;resizable=0;points=[];fontSize=7;" parent="3" vertex="1" connectable="0">
                    <mxGeometry x="-0.0961" y="-1" relative="1" as="geometry">
                        <mxPoint x="20" y="-5" as="offset"/>
                    </mxGeometry>
                </mxCell>
                <mxCell id="80" style="edgeStyle=none;html=1;entryX=0.303;entryY=0.045;entryDx=0;entryDy=0;entryPerimeter=0;exitX=1.007;exitY=0.92;exitDx=0;exitDy=0;exitPerimeter=0;" edge="1" parent="1" source="4" target="2">
                    <mxGeometry relative="1" as="geometry">
                        <Array as="points">
                            <mxPoint x="344" y="255"/>
                        </Array>
                    </mxGeometry>
                </mxCell>
                <mxCell id="4" value="Proveedor&amp;nbsp;" style="rounded=0;whiteSpace=wrap;html=1;" parent="1" vertex="1">
                    <mxGeometry x="90" y="200" width="120" height="60" as="geometry"/>
                </mxCell>
                <mxCell id="16" style="edgeStyle=none;html=1;entryX=0.5;entryY=0;entryDx=0;entryDy=0;fontSize=7;" parent="1" source="14" target="2" edge="1">
                    <mxGeometry relative="1" as="geometry">
                        <Array as="points">
                            <mxPoint x="444" y="210"/>
                            <mxPoint x="364" y="210"/>
                        </Array>
                    </mxGeometry>
                </mxCell>
                <mxCell id="17" value="Gestion empresarial" style="edgeLabel;html=1;align=center;verticalAlign=middle;resizable=0;points=[];fontSize=7;" parent="16" vertex="1" connectable="0">
                    <mxGeometry x="-0.1348" y="-1" relative="1" as="geometry">
                        <mxPoint x="27" as="offset"/>
                    </mxGeometry>
                </mxCell>
                <mxCell id="14" value="&lt;font style=&quot;font-size: 10px&quot;&gt;Empleado&amp;nbsp;&amp;nbsp;&lt;/font&gt;" style="rounded=0;whiteSpace=wrap;html=1;" parent="1" vertex="1">
                    <mxGeometry x="520" y="160" width="70" height="100" as="geometry"/>
                </mxCell>
                <mxCell id="32" style="edgeStyle=none;rounded=1;html=1;entryX=0.326;entryY=0.972;entryDx=0;entryDy=0;entryPerimeter=0;fontSize=7;exitX=0.987;exitY=0.397;exitDx=0;exitDy=0;exitPerimeter=0;" parent="1" source="31" target="2" edge="1">
                    <mxGeometry relative="1" as="geometry">
                        <Array as="points">
                            <mxPoint x="346" y="530"/>
                        </Array>
                        <mxPoint x="209" y="530" as="sourcePoint"/>
                    </mxGeometry>
                </mxCell>
                <mxCell id="36" style="edgeStyle=none;rounded=1;html=1;fontSize=11;" parent="1" edge="1">
                    <mxGeometry relative="1" as="geometry">
                        <mxPoint x="354" y="439" as="targetPoint"/>
                        <Array as="points">
                            <mxPoint x="354" y="540"/>
                        </Array>
                        <mxPoint x="199" y="540" as="sourcePoint"/>
                    </mxGeometry>
                </mxCell>
                <mxCell id="37" value="&lt;span style=&quot;font-size: 7px&quot;&gt;Generar reportes&amp;nbsp;&lt;/span&gt;" style="edgeLabel;html=1;align=center;verticalAlign=middle;resizable=0;points=[];fontSize=11;" parent="36" vertex="1" connectable="0">
                    <mxGeometry x="-0.3573" y="1" relative="1" as="geometry">
                        <mxPoint x="-30" y="1" as="offset"/>
                    </mxGeometry>
                </mxCell>
                <mxCell id="31" value="Administrador" style="rounded=0;whiteSpace=wrap;html=1;" parent="1" vertex="1">
                    <mxGeometry x="80" y="500" width="118" height="74" as="geometry"/>
                </mxCell>
                <mxCell id="64" value="Gestion empresarial&amp;nbsp;" style="edgeLabel;html=1;align=center;verticalAlign=middle;resizable=0;points=[];fontSize=7;" vertex="1" connectable="0" parent="1">
                    <mxGeometry x="282.9993211010757" y="526.2758830002332" as="geometry">
                        <mxPoint x="-26" y="4" as="offset"/>
                    </mxGeometry>
                </mxCell>
                <mxCell id="76" value="&lt;span style=&quot;font-size: 7px&quot;&gt;Informe de reportes&amp;nbsp;&lt;/span&gt;" style="edgeLabel;html=1;align=center;verticalAlign=middle;resizable=0;points=[];fontSize=11;" vertex="1" connectable="0" parent="1">
                    <mxGeometry x="320.9989655172413" y="550" as="geometry"/>
                </mxCell>
                <mxCell id="79" value="Pago de servicio" style="edgeLabel;html=1;align=center;verticalAlign=middle;resizable=0;points=[];fontSize=7;" vertex="1" connectable="0" parent="1">
                    <mxGeometry x="210.0009076782779" y="364" as="geometry"/>
                </mxCell>
                <mxCell id="81" value="Factura&amp;nbsp;" style="edgeLabel;html=1;align=center;verticalAlign=middle;resizable=0;points=[];fontSize=7;" vertex="1" connectable="0" parent="1">
                    <mxGeometry x="263.00090767827794" y="251" as="geometry"/>
                </mxCell>
                <mxCell id="84" value="Factura de gestion&amp;nbsp;" style="edgeLabel;html=1;align=center;verticalAlign=middle;resizable=0;points=[];fontSize=7;" vertex="1" connectable="0" parent="1">
                    <mxGeometry x="459.00480996139623" y="339.0045314115933" as="geometry">
                        <mxPoint x="-1" y="-1" as="offset"/>
                    </mxGeometry>
                </mxCell>
            </root>
        </mxGraphModel>
    </diagram>
</mxfile>